; XNC file generated by gerbonara
M48
METRIC
T01C0000.80000
T02C0000.90000
T03C0001.00000
T04C0001.20000
T05C0001.30000
%
T02
G05
X0054.38000Y0006.00000
X0056.92000Y0006.00000
X0059.46000Y0006.00000
X0062.00000Y0006.00000
X0064.54000Y0006.00000
X0067.08000Y0006.00000
X0069.62000Y0006.00000
X0072.16000Y0006.00000
T05
X0052.50000Y0003.00000
X0074.00000Y0003.00000
T03
X0006.00000Y0028.00000
X0006.00000Y0030.54000
X0006.00000Y0033.08000
X0006.00000Y0035.62000
X0006.00000Y0038.16000
X0006.00000Y0040.70000
X0006.00000Y0043.24000
X0006.00000Y0045.78000
X0006.00000Y0048.32000
X0006.00000Y0050.86000
X0008.54000Y0028.00000
X0008.54000Y0030.54000
X0008.54000Y0033.08000
X0008.54000Y0035.62000
X0008.54000Y0038.16000
X0008.54000Y0040.70000
X0008.54000Y0043.24000
X0008.54000Y0045.78000
X0008.54000Y0048.32000
X0008.54000Y0050.86000
T01
X0017.00000Y0036.00000
X0019.50000Y0036.00000
X0022.00000Y0036.00000
X0024.50000Y0036.00000
X0027.00000Y0036.00000
X0029.50000Y0036.00000
X0031.00000Y0036.00000
X0033.50000Y0036.00000
X0036.00000Y0036.00000
X0038.50000Y0036.00000
X0041.00000Y0036.00000
X0043.50000Y0036.00000
T02
X0014.50000Y0006.00000
X0016.75000Y0006.00000
X0019.25000Y0006.00000
X0021.50000Y0006.00000
T04
X0012.50000Y0009.50000
X0023.50000Y0009.50000
T02
X0040.50000Y0006.00000
X0042.75000Y0006.00000
X0045.25000Y0006.00000
X0047.50000Y0006.00000
T04
X0038.50000Y0009.50000
X0049.50000Y0009.50000
T03
X0054.00000Y0034.00000
X0051.46000Y0034.00000
X0048.92000Y0034.00000
X0046.38000Y0034.00000
X0043.84000Y0034.00000
X0041.30000Y0034.00000
X0028.00000Y0034.00000
X0028.00000Y0036.54000
X0028.00000Y0039.08000
X0028.00000Y0041.62000
X0028.00000Y0044.16000
X0028.00000Y0046.70000
X0028.00000Y0049.24000
X0028.00000Y0051.78000
M30