G04 Gerber file generated by Gerbonara*
%MOMM*%
%FSLAX45Y45*%
%IPPOS*%
G75
%LPD*%
%ADD10C,0.8*%
%ADD11C,0.4*%
%ADD12C,0.3*%
%ADD13R,1.5X0.6*%
%ADD14R,2.0X1.5*%
%ADD15R,2.0X3.0*%
%ADD16C,0.9*%
%ADD17C,1.3*%
%ADD18C,1.0*%
D10*
X001200000Y005200000D02*
X001800000Y004200000D01*
D11*
X004200000Y003800000D01*
D12*
X001500000Y002500000D02*
X005000000Y002200000D01*
X004200000Y003800000D02*
X007000000Y004500000D01*
X004200000Y003800000D02*
X007000000Y004500000D01*
G36*
G01**
X000600000Y000600000D02*
X008400000Y000600000D01*
X008400000Y005900000D01*
X000600000Y005900000D01*
X000600000Y000600000D01*
G37*
D13*
X003930000Y003609500D03*
X003930000Y003736500D03*
X003930000Y003863500D03*
X003930000Y003990500D03*
X004470000Y003990500D03*
X004470000Y003863500D03*
X004470000Y003736500D03*
X004470000Y003609500D03*
D14*
X001460000Y004200000D03*
D15*
X001800000Y004200000D03*
D14*
X002140000Y004200000D03*
D16*
X006238000Y004500000D03*
X006492000Y004500000D03*
X006746000Y004500000D03*
X007000000Y004500000D03*
X007254000Y004500000D03*
X007508000Y004500000D03*
X007762000Y004500000D03*
X008016000Y004500000D03*
D17*
X006050000Y004200000D03*
X008200000Y004200000D03*
D18*
X001500000Y002500000D03*
X001500000Y002754000D03*
X001500000Y003008000D03*
X001500000Y003262000D03*
X001500000Y003516000D03*
X001500000Y003770000D03*
X001500000Y004024000D03*
X001500000Y004278000D03*
X001500000Y004532000D03*
X001500000Y004786000D03*
X001754000Y002500000D03*
X001754000Y002754000D03*
X001754000Y003008000D03*
X001754000Y003262000D03*
X001754000Y003516000D03*
X001754000Y003770000D03*
X001754000Y004024000D03*
X001754000Y004278000D03*
X001754000Y004532000D03*
X001754000Y004786000D03*
D10*
X004500000Y002200000D03*
X004750000Y002200000D03*
X005000000Y002200000D03*
X005250000Y002200000D03*
X005500000Y002200000D03*
X005750000Y002200000D03*
X005700000Y002200000D03*
X005950000Y002200000D03*
X006200000Y002200000D03*
X006450000Y002200000D03*
X006700000Y002200000D03*
X006950000Y002200000D03*
M02*