; XNC file generated by gerbonara
M48
METRIC
T01C0000.80000
T02C0000.90000
T03C0001.00000
T04C0001.30000
%
T02
G05
X0062.38000Y0045.00000
X0064.92000Y0045.00000
X0067.46000Y0045.00000
X0070.00000Y0045.00000
X0072.54000Y0045.00000
X0075.08000Y0045.00000
X0077.62000Y0045.00000
X0080.16000Y0045.00000
T04
X0060.50000Y0042.00000
X0082.00000Y0042.00000
T03
X0015.00000Y0025.00000
X0015.00000Y0027.54000
X0015.00000Y0030.08000
X0015.00000Y0032.62000
X0015.00000Y0035.16000
X0015.00000Y0037.70000
X0015.00000Y0040.24000
X0015.00000Y0042.78000
X0015.00000Y0045.32000
X0015.00000Y0047.86000
X0017.54000Y0025.00000
X0017.54000Y0027.54000
X0017.54000Y0030.08000
X0017.54000Y0032.62000
X0017.54000Y0035.16000
X0017.54000Y0037.70000
X0017.54000Y0040.24000
X0017.54000Y0042.78000
X0017.54000Y0045.32000
X0017.54000Y0047.86000
T01
X0045.00000Y0022.00000
X0047.50000Y0022.00000
X0050.00000Y0022.00000
X0052.50000Y0022.00000
X0055.00000Y0022.00000
X0057.50000Y0022.00000
X0057.00000Y0022.00000
X0059.50000Y0022.00000
X0062.00000Y0022.00000
X0064.50000Y0022.00000
X0067.00000Y0022.00000
X0069.50000Y0022.00000
M30