G04 Gerber file generated by Gerbonara*
%MOMM*%
%FSLAX45Y45*%
%IPPOS*%
G75
%LPD*%
%ADD10C,0.5*%
%ADD11C,0.4*%
%ADD12C,0.25*%
%ADD13R,1.5X0.6*%
%ADD14R,2.0X1.5*%
%ADD15R,2.0X3.0*%
%ADD16C,0.9*%
%ADD17C,1.3*%
%ADD18C,1.0*%
%ADD19C,0.8*%
%ADD20R,0.4X1.2*%
%ADD21C,1.2*%
D10*
X001400000Y002200000D02*
X003400000Y001600000D01*
D11*
X001400000Y002200000D02*
X000600000Y002800000D01*
X003400000Y001600000D02*
X001800000Y000600000D01*
X003400000Y001600000D02*
X004400000Y000600000D01*
D12*
X002800000Y003908000D02*
X003400000Y001600000D01*
X002800000Y003654000D02*
X003400000Y001600000D01*
X001675000Y000600000D01*
X003400000Y001600000D02*
X004525000Y000600000D01*
X000600000Y003308000D02*
X005200000Y001600000D01*
X000854000Y003308000D02*
X005200000Y001600000D01*
X006200000Y000854000D01*
X005200000Y001600000D02*
X006200000Y001108000D01*
X000600000Y003562000D02*
X002200000Y003600000D01*
X000854000Y003562000D02*
X002200000Y003600000D01*
X003600000Y003600000D01*
X000854000Y003816000D02*
X003600000Y003600000D01*
X005400000Y003400000D02*
X002800000Y004416000D01*
X005400000Y003654000D02*
X002800000Y004670000D01*
X005400000Y003908000D02*
X002800000Y004924000D01*
X005400000Y004162000D02*
X002800000Y005178000D01*
G36*
G01**
X000300000Y000300000D02*
X007900000Y000300000D01*
X007900000Y005100000D01*
X000300000Y005100000D01*
X000300000Y000300000D01*
G37*
D13*
X004930000Y001409500D03*
X004930000Y001536500D03*
X004930000Y001663500D03*
X004930000Y001790500D03*
X005470000Y001790500D03*
X005470000Y001663500D03*
X005470000Y001536500D03*
X005470000Y001409500D03*
D14*
X001060000Y002200000D03*
D15*
X001400000Y002200000D03*
D14*
X001740000Y002200000D03*
D16*
X005438000Y000600000D03*
X005692000Y000600000D03*
X005946000Y000600000D03*
X006200000Y000600000D03*
X006454000Y000600000D03*
X006708000Y000600000D03*
X006962000Y000600000D03*
X007216000Y000600000D03*
D17*
X005250000Y000300000D03*
X007400000Y000300000D03*
D18*
X000600000Y002800000D03*
X000600000Y003054000D03*
X000600000Y003308000D03*
X000600000Y003562000D03*
X000600000Y003816000D03*
X000600000Y004070000D03*
X000600000Y004324000D03*
X000600000Y004578000D03*
X000600000Y004832000D03*
X000600000Y005086000D03*
X000854000Y002800000D03*
X000854000Y003054000D03*
X000854000Y003308000D03*
X000854000Y003562000D03*
X000854000Y003816000D03*
X000854000Y004070000D03*
X000854000Y004324000D03*
X000854000Y004578000D03*
X000854000Y004832000D03*
X000854000Y005086000D03*
D19*
X001700000Y003600000D03*
X001950000Y003600000D03*
X002200000Y003600000D03*
X002450000Y003600000D03*
X002700000Y003600000D03*
X002950000Y003600000D03*
X003100000Y003600000D03*
X003350000Y003600000D03*
X003600000Y003600000D03*
X003850000Y003600000D03*
X004100000Y003600000D03*
X004350000Y003600000D03*
D20*
X002875000Y001200000D03*
X003525000Y001200000D03*
X003925000Y002000000D03*
X003675000Y002000000D03*
X003625000Y002000000D03*
X003475000Y002000000D03*
X003425000Y002000000D03*
X003225000Y001200000D03*
D16*
X001450000Y000600000D03*
X001675000Y000600000D03*
X001925000Y000600000D03*
X002150000Y000600000D03*
D21*
X001250000Y000950000D03*
X002350000Y000950000D03*
D16*
X004050000Y000600000D03*
X004275000Y000600000D03*
X004525000Y000600000D03*
X004750000Y000600000D03*
D21*
X003850000Y000950000D03*
X004950000Y000950000D03*
D18*
X005400000Y003400000D03*
X005146000Y003400000D03*
X004892000Y003400000D03*
X004638000Y003400000D03*
X004384000Y003400000D03*
X004130000Y003400000D03*
X002800000Y003400000D03*
X002800000Y003654000D03*
X002800000Y003908000D03*
X002800000Y004162000D03*
X002800000Y004416000D03*
X002800000Y004670000D03*
X002800000Y004924000D03*
X002800000Y005178000D03*
M02*