G04 Gerber file generated by Gerbonara*
%MOMM*%
%FSLAX45Y45*%
%IPPOS*%
G75
%LPD*%
%ADD10R,1.6X0.7*%
%ADD11R,2.1X1.6*%
%ADD12R,2.1X3.1*%
%ADD13C,1.0*%
%ADD14C,1.4*%
%ADD15C,1.1*%
%ADD16C,0.9*%
%ADD17R,0.5X1.3*%
%ADD18C,1.3*%
D10*
X003930000Y003609500D03*
X003930000Y003736500D03*
X003930000Y003863500D03*
X003930000Y003990500D03*
X004470000Y003990500D03*
X004470000Y003863500D03*
X004470000Y003736500D03*
X004470000Y003609500D03*
D11*
X001460000Y004200000D03*
D12*
X001800000Y004200000D03*
D11*
X002140000Y004200000D03*
D13*
X006238000Y004500000D03*
X006492000Y004500000D03*
X006746000Y004500000D03*
X007000000Y004500000D03*
X007254000Y004500000D03*
X007508000Y004500000D03*
X007762000Y004500000D03*
X008016000Y004500000D03*
D14*
X006050000Y004200000D03*
X008200000Y004200000D03*
D15*
X001500000Y002500000D03*
X001500000Y002754000D03*
X001500000Y003008000D03*
X001500000Y003262000D03*
X001500000Y003516000D03*
X001500000Y003770000D03*
X001500000Y004024000D03*
X001500000Y004278000D03*
X001500000Y004532000D03*
X001500000Y004786000D03*
X001754000Y002500000D03*
X001754000Y002754000D03*
X001754000Y003008000D03*
X001754000Y003262000D03*
X001754000Y003516000D03*
X001754000Y003770000D03*
X001754000Y004024000D03*
X001754000Y004278000D03*
X001754000Y004532000D03*
X001754000Y004786000D03*
D16*
X004500000Y002200000D03*
X004750000Y002200000D03*
X005000000Y002200000D03*
X005250000Y002200000D03*
X005500000Y002200000D03*
X005750000Y002200000D03*
X005700000Y002200000D03*
X005950000Y002200000D03*
X006200000Y002200000D03*
X006450000Y002200000D03*
X006700000Y002200000D03*
X006950000Y002200000D03*
D17*
X004975000Y001400000D03*
X005625000Y001400000D03*
X006025000Y002200000D03*
X005775000Y002200000D03*
X005725000Y002200000D03*
X005575000Y002200000D03*
X005525000Y002200000D03*
X005325000Y001400000D03*
D13*
X002450000Y001000000D03*
X002675000Y001000000D03*
X002925000Y001000000D03*
X003150000Y001000000D03*
D18*
X002250000Y001350000D03*
X003350000Y001350000D03*
D13*
X007450000Y001000000D03*
X007675000Y001000000D03*
X007925000Y001000000D03*
X008150000Y001000000D03*
D18*
X007250000Y001350000D03*
X008350000Y001350000D03*
D15*
X009200000Y005800000D03*
X008946000Y005800000D03*
X008692000Y005800000D03*
X008438000Y005800000D03*
X008184000Y005800000D03*
X007930000Y005800000D03*
X004000000Y006200000D03*
X004000000Y006454000D03*
X004000000Y006708000D03*
X004000000Y006962000D03*
X004000000Y007216000D03*
X004000000Y007470000D03*
X004000000Y007724000D03*
X004000000Y007978000D03*
M02*