<?xml version="1.0" encoding="utf-8"?>
<svg width="86.075mm" height="58.33mm" viewBox="-3 -3 86.075 58.33" style="background-color:#e8e8e8" xmlns="http://www.w3.org/2000/svg" xmlns:xlink="http://www.w3.org/1999/xlink">
  <g id="l-top-copper" transform="translate(0 52.33) scale(1 -1)" stroke-linejoin="round" stroke-linecap="round">
    <path d="M 14.0 22.0 L 34.0 16.0" fill="none" stroke="#C87533" stroke-linecap="round" stroke-linejoin="round" stroke-width="0.5"/>
    <path d="M 14.0 22.0 L 6.0 28.0" fill="none" stroke="#C87533" stroke-linecap="round" stroke-linejoin="round" stroke-width="0.4"/>
    <path d="M 34.0 16.0 L 18.0 6.0" fill="none" stroke="#C87533" stroke-linecap="round" stroke-linejoin="round" stroke-width="0.4"/>
    <path d="M 34.0 16.0 L 44.0 6.0" fill="none" stroke="#C87533" stroke-linecap="round" stroke-linejoin="round" stroke-width="0.4"/>
    <path d="M 28.0 39.08 L 34.0 16.0" fill="none" stroke="#C87533" stroke-linecap="round" stroke-linejoin="round" stroke-width="0.25"/>
    <path d="M 28.0 36.54 L 34.0 16.0 L 16.75 6.0" fill="none" stroke="#C87533" stroke-linecap="round" stroke-linejoin="round" stroke-width="0.25"/>
    <path d="M 34.0 16.0 L 45.25 6.0" fill="none" stroke="#C87533" stroke-linecap="round" stroke-linejoin="round" stroke-width="0.25"/>
    <path d="M 6.0 33.08 L 52.0 16.0" fill="none" stroke="#C87533" stroke-linecap="round" stroke-linejoin="round" stroke-width="0.25"/>
    <path d="M 8.54 33.08 L 52.0 16.0 L 62.0 8.54" fill="none" stroke="#C87533" stroke-linecap="round" stroke-linejoin="round" stroke-width="0.25"/>
    <path d="M 52.0 16.0 L 62.0 11.08" fill="none" stroke="#C87533" stroke-linecap="round" stroke-linejoin="round" stroke-width="0.25"/>
    <path d="M 6.0 35.62 L 22.0 36.0" fill="none" stroke="#C87533" stroke-linecap="round" stroke-linejoin="round" stroke-width="0.25"/>
    <path d="M 8.54 35.62 L 22.0 36.0 L 36.0 36.0" fill="none" stroke="#C87533" stroke-linecap="round" stroke-linejoin="round" stroke-width="0.25"/>
    <path d="M 8.54 38.16 L 36.0 36.0" fill="none" stroke="#C87533" stroke-linecap="round" stroke-linejoin="round" stroke-width="0.25"/>
    <path d="M 54.0 34.0 L 28.0 44.16" fill="none" stroke="#C87533" stroke-linecap="round" stroke-linejoin="round" stroke-width="0.25"/>
    <path d="M 54.0 36.54 L 28.0 46.7" fill="none" stroke="#C87533" stroke-linecap="round" stroke-linejoin="round" stroke-width="0.25"/>
    <path d="M 54.0 39.08 L 28.0 49.24" fill="none" stroke="#C87533" stroke-linecap="round" stroke-linejoin="round" stroke-width="0.25"/>
    <path d="M 54.0 41.62 L 28.0 51.78" fill="none" stroke="#C87533" stroke-linecap="round" stroke-linejoin="round" stroke-width="0.25"/>
    <path d="M 3.0 3.0 L 79.0 3.0 L 79.0 51.0 L 3.0 51.0 L 3.0 3.0" fill="#C87533"/>
    <rect x="48.55" y="13.795" width="1.5" height="0.6" fill="#C87533"/>
    <rect x="48.55" y="15.065" width="1.5" height="0.6" fill="#C87533"/>
    <rect x="48.55" y="16.335" width="1.5" height="0.6" fill="#C87533"/>
    <rect x="48.55" y="17.605" width="1.5" height="0.6" fill="#C87533"/>
    <rect x="53.95" y="17.605" width="1.5" height="0.6" fill="#C87533"/>
    <rect x="53.95" y="16.335" width="1.5" height="0.6" fill="#C87533"/>
    <rect x="53.95" y="15.065" width="1.5" height="0.6" fill="#C87533"/>
    <rect x="53.95" y="13.795" width="1.5" height="0.6" fill="#C87533"/>
    <rect x="9.6" y="21.25" width="2.0" height="1.5" fill="#C87533"/>
    <rect x="13.0" y="20.5" width="2.0" height="3.0" fill="#C87533"/>
    <rect x="16.4" y="21.25" width="2.0" height="1.5" fill="#C87533"/>
    <circle cx="54.38" cy="6.0" r="0.45" fill="#C87533"/>
    <circle cx="56.92" cy="6.0" r="0.45" fill="#C87533"/>
    <circle cx="59.46" cy="6.0" r="0.45" fill="#C87533"/>
    <circle cx="62.0" cy="6.0" r="0.45" fill="#C87533"/>
    <circle cx="64.54" cy="6.0" r="0.45" fill="#C87533"/>
    <circle cx="67.08" cy="6.0" r="0.45" fill="#C87533"/>
    <circle cx="69.62" cy="6.0" r="0.45" fill="#C87533"/>
    <circle cx="72.16" cy="6.0" r="0.45" fill="#C87533"/>
    <circle cx="52.5" cy="3.0" r="0.65" fill="#C87533"/>
    <circle cx="74.0" cy="3.0" r="0.65" fill="#C87533"/>
    <circle cx="6.0" cy="28.0" r="0.5" fill="#C87533"/>
    <circle cx="6.0" cy="30.54" r="0.5" fill="#C87533"/>
    <circle cx="6.0" cy="33.08" r="0.5" fill="#C87533"/>
    <circle cx="6.0" cy="35.62" r="0.5" fill="#C87533"/>
    <circle cx="6.0" cy="38.16" r="0.5" fill="#C87533"/>
    <circle cx="6.0" cy="40.7" r="0.5" fill="#C87533"/>
    <circle cx="6.0" cy="43.24" r="0.5" fill="#C87533"/>
    <circle cx="6.0" cy="45.78" r="0.5" fill="#C87533"/>
    <circle cx="6.0" cy="48.32" r="0.5" fill="#C87533"/>
    <circle cx="6.0" cy="50.86" r="0.5" fill="#C87533"/>
    <circle cx="8.54" cy="28.0" r="0.5" fill="#C87533"/>
    <circle cx="8.54" cy="30.54" r="0.5" fill="#C87533"/>
    <circle cx="8.54" cy="33.08" r="0.5" fill="#C87533"/>
    <circle cx="8.54" cy="35.62" r="0.5" fill="#C87533"/>
    <circle cx="8.54" cy="38.16" r="0.5" fill="#C87533"/>
    <circle cx="8.54" cy="40.7" r="0.5" fill="#C87533"/>
    <circle cx="8.54" cy="43.24" r="0.5" fill="#C87533"/>
    <circle cx="8.54" cy="45.78" r="0.5" fill="#C87533"/>
    <circle cx="8.54" cy="48.32" r="0.5" fill="#C87533"/>
    <circle cx="8.54" cy="50.86" r="0.5" fill="#C87533"/>
    <circle cx="17.0" cy="36.0" r="0.4" fill="#C87533"/>
    <circle cx="19.5" cy="36.0" r="0.4" fill="#C87533"/>
    <circle cx="22.0" cy="36.0" r="0.4" fill="#C87533"/>
    <circle cx="24.5" cy="36.0" r="0.4" fill="#C87533"/>
    <circle cx="27.0" cy="36.0" r="0.4" fill="#C87533"/>
    <circle cx="29.5" cy="36.0" r="0.4" fill="#C87533"/>
    <circle cx="31.0" cy="36.0" r="0.4" fill="#C87533"/>
    <circle cx="33.5" cy="36.0" r="0.4" fill="#C87533"/>
    <circle cx="36.0" cy="36.0" r="0.4" fill="#C87533"/>
    <circle cx="38.5" cy="36.0" r="0.4" fill="#C87533"/>
    <circle cx="41.0" cy="36.0" r="0.4" fill="#C87533"/>
    <circle cx="43.5" cy="36.0" r="0.4" fill="#C87533"/>
    <rect x="28.55" y="11.4" width="0.4" height="1.2" fill="#C87533"/>
    <rect x="35.05" y="11.4" width="0.4" height="1.2" fill="#C87533"/>
    <rect x="39.05" y="19.4" width="0.4" height="1.2" fill="#C87533"/>
    <rect x="36.55" y="19.4" width="0.4" height="1.2" fill="#C87533"/>
    <rect x="36.05" y="19.4" width="0.4" height="1.2" fill="#C87533"/>
    <rect x="34.55" y="19.4" width="0.4" height="1.2" fill="#C87533"/>
    <rect x="34.05" y="19.4" width="0.4" height="1.2" fill="#C87533"/>
    <rect x="32.05" y="11.4" width="0.4" height="1.2" fill="#C87533"/>
    <circle cx="14.5" cy="6.0" r="0.45" fill="#C87533"/>
    <circle cx="16.75" cy="6.0" r="0.45" fill="#C87533"/>
    <circle cx="19.25" cy="6.0" r="0.45" fill="#C87533"/>
    <circle cx="21.5" cy="6.0" r="0.45" fill="#C87533"/>
    <circle cx="12.5" cy="9.5" r="0.6" fill="#C87533"/>
    <circle cx="23.5" cy="9.5" r="0.6" fill="#C87533"/>
    <circle cx="40.5" cy="6.0" r="0.45" fill="#C87533"/>
    <circle cx="42.75" cy="6.0" r="0.45" fill="#C87533"/>
    <circle cx="45.25" cy="6.0" r="0.45" fill="#C87533"/>
    <circle cx="47.5" cy="6.0" r="0.45" fill="#C87533"/>
    <circle cx="38.5" cy="9.5" r="0.6" fill="#C87533"/>
    <circle cx="49.5" cy="9.5" r="0.6" fill="#C87533"/>
    <circle cx="54.0" cy="34.0" r="0.5" fill="#C87533"/>
    <circle cx="51.46" cy="34.0" r="0.5" fill="#C87533"/>
    <circle cx="48.92" cy="34.0" r="0.5" fill="#C87533"/>
    <circle cx="46.38" cy="34.0" r="0.5" fill="#C87533"/>
    <circle cx="43.84" cy="34.0" r="0.5" fill="#C87533"/>
    <circle cx="41.3" cy="34.0" r="0.5" fill="#C87533"/>
    <circle cx="28.0" cy="34.0" r="0.5" fill="#C87533"/>
    <circle cx="28.0" cy="36.54" r="0.5" fill="#C87533"/>
    <circle cx="28.0" cy="39.08" r="0.5" fill="#C87533"/>
    <circle cx="28.0" cy="41.62" r="0.5" fill="#C87533"/>
    <circle cx="28.0" cy="44.16" r="0.5" fill="#C87533"/>
    <circle cx="28.0" cy="46.7" r="0.5" fill="#C87533"/>
    <circle cx="28.0" cy="49.24" r="0.5" fill="#C87533"/>
    <circle cx="28.0" cy="51.78" r="0.5" fill="#C87533"/>
  </g>
  <path id="l-soldermask-fill" d="M 1.925 1.925 L 80.075 1.925 L 80.075 52.075 L 1.925 52.075 Z" fill="#1A5C1A" stroke="none" transform="translate(0 52.33) scale(1 -1)"/>
  <g id="l-mask-openings" transform="translate(0 52.33) scale(1 -1)" stroke-linejoin="round" stroke-linecap="round">
    <rect x="48.5" y="13.745" width="1.6" height="0.7" fill="#C87533"/>
    <rect x="48.5" y="15.015" width="1.6" height="0.7" fill="#C87533"/>
    <rect x="48.5" y="16.285" width="1.6" height="0.7" fill="#C87533"/>
    <rect x="48.5" y="17.555" width="1.6" height="0.7" fill="#C87533"/>
    <rect x="53.9" y="17.555" width="1.6" height="0.7" fill="#C87533"/>
    <rect x="53.9" y="16.285" width="1.6" height="0.7" fill="#C87533"/>
    <rect x="53.9" y="15.015" width="1.6" height="0.7" fill="#C87533"/>
    <rect x="53.9" y="13.745" width="1.6" height="0.7" fill="#C87533"/>
    <rect x="9.55" y="21.2" width="2.1" height="1.6" fill="#C87533"/>
    <rect x="12.95" y="20.45" width="2.1" height="3.1" fill="#C87533"/>
    <rect x="16.35" y="21.2" width="2.1" height="1.6" fill="#C87533"/>
    <circle cx="54.38" cy="6.0" r="0.5" fill="#C87533"/>
    <circle cx="56.92" cy="6.0" r="0.5" fill="#C87533"/>
    <circle cx="59.46" cy="6.0" r="0.5" fill="#C87533"/>
    <circle cx="62.0" cy="6.0" r="0.5" fill="#C87533"/>
    <circle cx="64.54" cy="6.0" r="0.5" fill="#C87533"/>
    <circle cx="67.08" cy="6.0" r="0.5" fill="#C87533"/>
    <circle cx="69.62" cy="6.0" r="0.5" fill="#C87533"/>
    <circle cx="72.16" cy="6.0" r="0.5" fill="#C87533"/>
    <circle cx="52.5" cy="3.0" r="0.7" fill="#C87533"/>
    <circle cx="74.0" cy="3.0" r="0.7" fill="#C87533"/>
    <circle cx="6.0" cy="28.0" r="0.55" fill="#C87533"/>
    <circle cx="6.0" cy="30.54" r="0.55" fill="#C87533"/>
    <circle cx="6.0" cy="33.08" r="0.55" fill="#C87533"/>
    <circle cx="6.0" cy="35.62" r="0.55" fill="#C87533"/>
    <circle cx="6.0" cy="38.16" r="0.55" fill="#C87533"/>
    <circle cx="6.0" cy="40.7" r="0.55" fill="#C87533"/>
    <circle cx="6.0" cy="43.24" r="0.55" fill="#C87533"/>
    <circle cx="6.0" cy="45.78" r="0.55" fill="#C87533"/>
    <circle cx="6.0" cy="48.32" r="0.55" fill="#C87533"/>
    <circle cx="6.0" cy="50.86" r="0.55" fill="#C87533"/>
    <circle cx="8.54" cy="28.0" r="0.55" fill="#C87533"/>
    <circle cx="8.54" cy="30.54" r="0.55" fill="#C87533"/>
    <circle cx="8.54" cy="33.08" r="0.55" fill="#C87533"/>
    <circle cx="8.54" cy="35.62" r="0.55" fill="#C87533"/>
    <circle cx="8.54" cy="38.16" r="0.55" fill="#C87533"/>
    <circle cx="8.54" cy="40.7" r="0.55" fill="#C87533"/>
    <circle cx="8.54" cy="43.24" r="0.55" fill="#C87533"/>
    <circle cx="8.54" cy="45.78" r="0.55" fill="#C87533"/>
    <circle cx="8.54" cy="48.32" r="0.55" fill="#C87533"/>
    <circle cx="8.54" cy="50.86" r="0.55" fill="#C87533"/>
    <circle cx="17.0" cy="36.0" r="0.45" fill="#C87533"/>
    <circle cx="19.5" cy="36.0" r="0.45" fill="#C87533"/>
    <circle cx="22.0" cy="36.0" r="0.45" fill="#C87533"/>
    <circle cx="24.5" cy="36.0" r="0.45" fill="#C87533"/>
    <circle cx="27.0" cy="36.0" r="0.45" fill="#C87533"/>
    <circle cx="29.5" cy="36.0" r="0.45" fill="#C87533"/>
    <circle cx="31.0" cy="36.0" r="0.45" fill="#C87533"/>
    <circle cx="33.5" cy="36.0" r="0.45" fill="#C87533"/>
    <circle cx="36.0" cy="36.0" r="0.45" fill="#C87533"/>
    <circle cx="38.5" cy="36.0" r="0.45" fill="#C87533"/>
    <circle cx="41.0" cy="36.0" r="0.45" fill="#C87533"/>
    <circle cx="43.5" cy="36.0" r="0.45" fill="#C87533"/>
    <rect x="28.5" y="11.35" width="0.5" height="1.3" fill="#C87533"/>
    <rect x="35.0" y="11.35" width="0.5" height="1.3" fill="#C87533"/>
    <rect x="39.0" y="19.35" width="0.5" height="1.3" fill="#C87533"/>
    <rect x="36.5" y="19.35" width="0.5" height="1.3" fill="#C87533"/>
    <rect x="36.0" y="19.35" width="0.5" height="1.3" fill="#C87533"/>
    <rect x="34.5" y="19.35" width="0.5" height="1.3" fill="#C87533"/>
    <rect x="34.0" y="19.35" width="0.5" height="1.3" fill="#C87533"/>
    <rect x="32.0" y="11.35" width="0.5" height="1.3" fill="#C87533"/>
    <circle cx="14.5" cy="6.0" r="0.5" fill="#C87533"/>
    <circle cx="16.75" cy="6.0" r="0.5" fill="#C87533"/>
    <circle cx="19.25" cy="6.0" r="0.5" fill="#C87533"/>
    <circle cx="21.5" cy="6.0" r="0.5" fill="#C87533"/>
    <circle cx="12.5" cy="9.5" r="0.65" fill="#C87533"/>
    <circle cx="23.5" cy="9.5" r="0.65" fill="#C87533"/>
    <circle cx="40.5" cy="6.0" r="0.5" fill="#C87533"/>
    <circle cx="42.75" cy="6.0" r="0.5" fill="#C87533"/>
    <circle cx="45.25" cy="6.0" r="0.5" fill="#C87533"/>
    <circle cx="47.5" cy="6.0" r="0.5" fill="#C87533"/>
    <circle cx="38.5" cy="9.5" r="0.65" fill="#C87533"/>
    <circle cx="49.5" cy="9.5" r="0.65" fill="#C87533"/>
    <circle cx="54.0" cy="34.0" r="0.55" fill="#C87533"/>
    <circle cx="51.46" cy="34.0" r="0.55" fill="#C87533"/>
    <circle cx="48.92" cy="34.0" r="0.55" fill="#C87533"/>
    <circle cx="46.38" cy="34.0" r="0.55" fill="#C87533"/>
    <circle cx="43.84" cy="34.0" r="0.55" fill="#C87533"/>
    <circle cx="41.3" cy="34.0" r="0.55" fill="#C87533"/>
    <circle cx="28.0" cy="34.0" r="0.55" fill="#C87533"/>
    <circle cx="28.0" cy="36.54" r="0.55" fill="#C87533"/>
    <circle cx="28.0" cy="39.08" r="0.55" fill="#C87533"/>
    <circle cx="28.0" cy="41.62" r="0.55" fill="#C87533"/>
    <circle cx="28.0" cy="44.16" r="0.55" fill="#C87533"/>
    <circle cx="28.0" cy="46.7" r="0.55" fill="#C87533"/>
    <circle cx="28.0" cy="49.24" r="0.55" fill="#C87533"/>
    <circle cx="28.0" cy="51.78" r="0.55" fill="#C87533"/>
  </g>
  <g id="l-top-paste" transform="translate(0 52.33) scale(1 -1)" stroke-linejoin="round" stroke-linecap="round">
    <rect x="48.55" y="13.795" width="1.5" height="0.6" fill="#888888"/>
    <rect x="48.55" y="15.065" width="1.5" height="0.6" fill="#888888"/>
    <rect x="48.55" y="16.335" width="1.5" height="0.6" fill="#888888"/>
    <rect x="48.55" y="17.605" width="1.5" height="0.6" fill="#888888"/>
    <rect x="53.95" y="17.605" width="1.5" height="0.6" fill="#888888"/>
    <rect x="53.95" y="16.335" width="1.5" height="0.6" fill="#888888"/>
    <rect x="53.95" y="15.065" width="1.5" height="0.6" fill="#888888"/>
    <rect x="53.95" y="13.795" width="1.5" height="0.6" fill="#888888"/>
    <rect x="9.6" y="21.25" width="2.0" height="1.5" fill="#888888"/>
    <rect x="13.0" y="20.5" width="2.0" height="3.0" fill="#888888"/>
    <rect x="16.4" y="21.25" width="2.0" height="1.5" fill="#888888"/>
    <rect x="28.55" y="11.4" width="0.4" height="1.2" fill="#888888"/>
    <rect x="35.05" y="11.4" width="0.4" height="1.2" fill="#888888"/>
    <rect x="39.05" y="19.4" width="0.4" height="1.2" fill="#888888"/>
    <rect x="36.55" y="19.4" width="0.4" height="1.2" fill="#888888"/>
    <rect x="36.05" y="19.4" width="0.4" height="1.2" fill="#888888"/>
    <rect x="34.55" y="19.4" width="0.4" height="1.2" fill="#888888"/>
    <rect x="34.05" y="19.4" width="0.4" height="1.2" fill="#888888"/>
    <rect x="32.05" y="11.4" width="0.4" height="1.2" fill="#888888"/>
  </g>
  <g id="l-top-silk" transform="translate(0 52.33) scale(1 -1)" stroke-linejoin="round" stroke-linecap="round">
    <circle cx="52.0" cy="16.0" r="0.075" fill="#E8E8E8"/>
    <circle cx="14.0" cy="22.0" r="0.075" fill="#E8E8E8"/>
    <circle cx="62.0" cy="6.0" r="0.075" fill="#E8E8E8"/>
    <circle cx="6.0" cy="28.0" r="0.075" fill="#E8E8E8"/>
    <circle cx="22.0" cy="36.0" r="0.075" fill="#E8E8E8"/>
    <circle cx="36.0" cy="36.0" r="0.075" fill="#E8E8E8"/>
    <circle cx="34.0" cy="16.0" r="0.075" fill="#E8E8E8"/>
    <circle cx="18.0" cy="6.0" r="0.075" fill="#E8E8E8"/>
    <circle cx="44.0" cy="6.0" r="0.075" fill="#E8E8E8"/>
    <circle cx="54.0" cy="34.0" r="0.075" fill="#E8E8E8"/>
    <circle cx="28.0" cy="34.0" r="0.075" fill="#E8E8E8"/>
  </g>
  <path id="l-board-edge" d="M 1.925 1.925 L 80.075 1.925 L 80.075 52.075 L 1.925 52.075 Z" fill="none" stroke="#D4A017" stroke-width="0.2" transform="translate(0 52.33) scale(1 -1)"/>
</svg>