<?xml version="1.0" encoding="utf-8"?>
<svg width="100mm" height="67mm" viewBox="5 5 100 67" style="background-color:white" xmlns="http://www.w3.org/2000/svg" xmlns:xlink="http://www.w3.org/1999/xlink">
  <defs>
    <filter id="f-copper">
                    <feFlood result="flood-black" flood-color="black" flood-opacity="1"/>
                    <feFlood result="flood-green" flood-color="#cccccc"/>
                    <feBlend in="SourceGraphic" in2="flood-black" result="overlay" mode="normal"/>
                    <feBlend in="overlay" in2="flood-green" result="colored" mode="multiply"/>
                    <feColorMatrix in="overlay" type="matrix" result="alphaOut" values="0 0 0 0 0
                    0 0 0 0 0
                    0 0 0 0 0
                    1 0 0 0 0"/>
                    <feComposite in="colored" in2="alphaOut" operator="in"/>
                    </filter>
    <filter id="f-mask">
                    <feFlood result="flood-black" flood-color="black" flood-opacity="1"/>
                    <feFlood result="flood-green" flood-color="#004200"/>
                    <feBlend in="SourceGraphic" in2="flood-black" result="overlay" mode="normal"/>
                    <feBlend in="overlay" in2="flood-green" result="colored" mode="multiply"/>
                    <feColorMatrix in="overlay" type="matrix" result="alphaOut" values="0 0 0 0 0
                    0 0 0 0 0
                    0 0 0 0 0
                    0.7490196078431373 0 0 0 0"/>
                    <feComposite in="colored" in2="alphaOut" operator="in"/>
                    </filter>
    <filter id="f-paste">
                    <feFlood result="flood-black" flood-color="black" flood-opacity="1"/>
                    <feFlood result="flood-green" flood-color="#999999"/>
                    <feBlend in="SourceGraphic" in2="flood-black" result="overlay" mode="normal"/>
                    <feBlend in="overlay" in2="flood-green" result="colored" mode="multiply"/>
                    <feColorMatrix in="overlay" type="matrix" result="alphaOut" values="0 0 0 0 0
                    0 0 0 0 0
                    0 0 0 0 0
                    1 0 0 0 0"/>
                    <feComposite in="colored" in2="alphaOut" operator="in"/>
                    </filter>
    <filter id="f-silk">
                    <feFlood result="flood-black" flood-color="black" flood-opacity="1"/>
                    <feFlood result="flood-green" flood-color="#e0e0e0"/>
                    <feBlend in="SourceGraphic" in2="flood-black" result="overlay" mode="normal"/>
                    <feBlend in="overlay" in2="flood-green" result="colored" mode="multiply"/>
                    <feColorMatrix in="overlay" type="matrix" result="alphaOut" values="0 0 0 0 0
                    0 0 0 0 0
                    0 0 0 0 0
                    1 0 0 0 0"/>
                    <feComposite in="colored" in2="alphaOut" operator="in"/>
                    </filter>
    <filter id="f-drill">
                    <feFlood result="flood-black" flood-color="black" flood-opacity="1"/>
                    <feFlood result="flood-green" flood-color="#303030"/>
                    <feBlend in="SourceGraphic" in2="flood-black" result="overlay" mode="normal"/>
                    <feBlend in="overlay" in2="flood-green" result="colored" mode="multiply"/>
                    <feColorMatrix in="overlay" type="matrix" result="alphaOut" values="0 0 0 0 0
                    0 0 0 0 0
                    0 0 0 0 0
                    1 0 0 0 0"/>
                    <feComposite in="colored" in2="alphaOut" operator="in"/>
                    </filter>
    <filter id="f-outline">
                    <feFlood result="flood-black" flood-color="black" flood-opacity="1"/>
                    <feFlood result="flood-green" flood-color="#F0C000"/>
                    <feBlend in="SourceGraphic" in2="flood-black" result="overlay" mode="normal"/>
                    <feBlend in="overlay" in2="flood-green" result="colored" mode="multiply"/>
                    <feColorMatrix in="overlay" type="matrix" result="alphaOut" values="0 0 0 0 0
                    0 0 0 0 0
                    0 0 0 0 0
                    1 0 0 0 0"/>
                    <feComposite in="colored" in2="alphaOut" operator="in"/>
                    </filter>
    <g id="a0">
      <circle cx="0.0" cy="0.0" r="0.4" fill="white"/>
    </g>
    <g id="a1">
      <circle cx="0.0" cy="0.0" r="0.2" fill="white"/>
    </g>
    <g id="a2">
      <circle cx="0.0" cy="0.0" r="0.15" fill="white"/>
    </g>
    <g id="a3">
      <rect x="-0.75" y="-0.3" width="1.5" height="0.6" fill="white"/>
    </g>
    <g id="a4">
      <rect x="-1.0" y="-0.75" width="2.0" height="1.5" fill="white"/>
    </g>
    <g id="a5">
      <rect x="-1.0" y="-1.5" width="2.0" height="3.0" fill="white"/>
    </g>
    <g id="a6">
      <circle cx="0.0" cy="0.0" r="0.45" fill="white"/>
    </g>
    <g id="a7">
      <circle cx="0.0" cy="0.0" r="0.65" fill="white"/>
    </g>
    <g id="a8">
      <circle cx="0.0" cy="0.0" r="0.5" fill="white"/>
    </g>
    <g id="a9">
      <rect x="-0.2" y="-0.6" width="0.4" height="1.2" fill="white"/>
    </g>
    <g id="a10">
      <circle cx="0.0" cy="0.0" r="0.6" fill="white"/>
    </g>
    <g id="a11">
      <rect x="-0.8" y="-0.35" width="1.6" height="0.7" fill="black"/>
    </g>
    <g id="a12">
      <rect x="-1.05" y="-0.8" width="2.1" height="1.6" fill="black"/>
    </g>
    <g id="a13">
      <rect x="-1.05" y="-1.55" width="2.1" height="3.1" fill="black"/>
    </g>
    <g id="a14">
      <circle cx="0.0" cy="0.0" r="0.5" fill="black"/>
    </g>
    <g id="a15">
      <circle cx="0.0" cy="0.0" r="0.7" fill="black"/>
    </g>
    <g id="a16">
      <circle cx="0.0" cy="0.0" r="0.55" fill="black"/>
    </g>
    <g id="a17">
      <circle cx="0.0" cy="0.0" r="0.45" fill="black"/>
    </g>
    <g id="a18">
      <rect x="-0.25" y="-0.65" width="0.5" height="1.3" fill="black"/>
    </g>
    <g id="a19">
      <circle cx="0.0" cy="0.0" r="0.65" fill="black"/>
    </g>
    <g id="a20">
      <circle cx="0.0" cy="0.0" r="0.075" fill="white"/>
    </g>
    <g id="a21">
      <rect x="-0.75" y="-0.3" width="1.5" height="0.6" fill="white"/>
    </g>
    <g id="a22">
      <rect x="-1.0" y="-0.75" width="2.0" height="1.5" fill="white"/>
    </g>
    <g id="a23">
      <rect x="-1.0" y="-1.5" width="2.0" height="3.0" fill="white"/>
    </g>
    <g id="a24">
      <rect x="-0.2" y="-0.6" width="0.4" height="1.2" fill="white"/>
    </g>
  </defs>
  <g transform="translate(0 0) scale(1 1)">
    <g id="l-top-copper" filter="url(#f-copper)" fill="white" stroke="none" stroke-linejoin="round" stroke-linecap="round" fill-rule="evenodd" transform="translate(0 77) scale(1 -1)">
      <path d="M 12.0 52.0 L 18.0 42.0" fill="none" stroke="white" stroke-linecap="round" stroke-linejoin="round" stroke-width="0.8"/>
      <path d="M 18.0 42.0 L 42.0 38.0" fill="none" stroke="white" stroke-linecap="round" stroke-linejoin="round" stroke-width="0.4"/>
      <path d="M 55.0 18.0 L 28.0 10.0" fill="none" stroke="white" stroke-linecap="round" stroke-linejoin="round" stroke-width="0.3"/>
      <path d="M 55.0 18.0 L 78.0 10.0" fill="none" stroke="white" stroke-linecap="round" stroke-linejoin="round" stroke-width="0.3"/>
      <path d="M 55.0 62.0 L 55.0 18.0" fill="none" stroke="white" stroke-linecap="round" stroke-linejoin="round" stroke-width="0.3"/>
      <path d="M 15.0 25.0 L 50.0 22.0" fill="none" stroke="white" stroke-linecap="round" stroke-linejoin="round" stroke-width="0.3"/>
      <path d="M 42.0 38.0 L 70.0 45.0" fill="none" stroke="white" stroke-linecap="round" stroke-linejoin="round" stroke-width="0.3"/>
      <path d="M 42.0 38.0 L 70.0 45.0" fill="none" stroke="white" stroke-linecap="round" stroke-linejoin="round" stroke-width="0.3"/>
      <path d="M 92.0 58.0 L 40.0 72.0 L 40.0 62.0" fill="none" stroke="white" stroke-linecap="round" stroke-linejoin="round" stroke-width="0.3"/>
      <path d="M 6.0 6.0 L 104.0 6.0 L 104.0 71.0 L 6.0 71.0 L 6.0 6.0"/>
      <rect x="38.55" y="35.795" width="1.5" height="0.6"/>
      <rect x="38.55" y="37.065" width="1.5" height="0.6"/>
      <rect x="38.55" y="38.335" width="1.5" height="0.6"/>
      <rect x="38.55" y="39.605" width="1.5" height="0.6"/>
      <rect x="43.95" y="39.605" width="1.5" height="0.6"/>
      <rect x="43.95" y="38.335" width="1.5" height="0.6"/>
      <rect x="43.95" y="37.065" width="1.5" height="0.6"/>
      <rect x="43.95" y="35.795" width="1.5" height="0.6"/>
      <rect x="13.6" y="41.25" width="2.0" height="1.5"/>
      <rect x="17.0" y="40.5" width="2.0" height="3.0"/>
      <rect x="20.4" y="41.25" width="2.0" height="1.5"/>
      <circle cx="62.38" cy="45.0" r="0.45"/>
      <circle cx="64.92" cy="45.0" r="0.45"/>
      <circle cx="67.46" cy="45.0" r="0.45"/>
      <circle cx="70.0" cy="45.0" r="0.45"/>
      <circle cx="72.54" cy="45.0" r="0.45"/>
      <circle cx="75.08" cy="45.0" r="0.45"/>
      <circle cx="77.62" cy="45.0" r="0.45"/>
      <circle cx="80.16" cy="45.0" r="0.45"/>
      <circle cx="60.5" cy="42.0" r="0.65"/>
      <circle cx="82.0" cy="42.0" r="0.65"/>
      <circle cx="15.0" cy="25.0" r="0.5"/>
      <circle cx="15.0" cy="27.54" r="0.5"/>
      <circle cx="15.0" cy="30.08" r="0.5"/>
      <circle cx="15.0" cy="32.62" r="0.5"/>
      <circle cx="15.0" cy="35.16" r="0.5"/>
      <circle cx="15.0" cy="37.7" r="0.5"/>
      <circle cx="15.0" cy="40.24" r="0.5"/>
      <circle cx="15.0" cy="42.78" r="0.5"/>
      <circle cx="15.0" cy="45.32" r="0.5"/>
      <circle cx="15.0" cy="47.86" r="0.5"/>
      <circle cx="17.54" cy="25.0" r="0.5"/>
      <circle cx="17.54" cy="27.54" r="0.5"/>
      <circle cx="17.54" cy="30.08" r="0.5"/>
      <circle cx="17.54" cy="32.62" r="0.5"/>
      <circle cx="17.54" cy="35.16" r="0.5"/>
      <circle cx="17.54" cy="37.7" r="0.5"/>
      <circle cx="17.54" cy="40.24" r="0.5"/>
      <circle cx="17.54" cy="42.78" r="0.5"/>
      <circle cx="17.54" cy="45.32" r="0.5"/>
      <circle cx="17.54" cy="47.86" r="0.5"/>
      <circle cx="45.0" cy="22.0" r="0.4"/>
      <circle cx="47.5" cy="22.0" r="0.4"/>
      <circle cx="50.0" cy="22.0" r="0.4"/>
      <circle cx="52.5" cy="22.0" r="0.4"/>
      <circle cx="55.0" cy="22.0" r="0.4"/>
      <circle cx="57.5" cy="22.0" r="0.4"/>
      <circle cx="57.0" cy="22.0" r="0.4"/>
      <circle cx="59.5" cy="22.0" r="0.4"/>
      <circle cx="62.0" cy="22.0" r="0.4"/>
      <circle cx="64.5" cy="22.0" r="0.4"/>
      <circle cx="67.0" cy="22.0" r="0.4"/>
      <circle cx="69.5" cy="22.0" r="0.4"/>
      <rect x="49.55" y="13.4" width="0.4" height="1.2"/>
      <rect x="56.05" y="13.4" width="0.4" height="1.2"/>
      <rect x="60.05" y="21.4" width="0.4" height="1.2"/>
      <rect x="57.55" y="21.4" width="0.4" height="1.2"/>
      <rect x="57.05" y="21.4" width="0.4" height="1.2"/>
      <rect x="55.55" y="21.4" width="0.4" height="1.2"/>
      <rect x="55.05" y="21.4" width="0.4" height="1.2"/>
      <rect x="53.05" y="13.4" width="0.4" height="1.2"/>
      <circle cx="24.5" cy="10.0" r="0.45"/>
      <circle cx="26.75" cy="10.0" r="0.45"/>
      <circle cx="29.25" cy="10.0" r="0.45"/>
      <circle cx="31.5" cy="10.0" r="0.45"/>
      <circle cx="22.5" cy="13.5" r="0.6"/>
      <circle cx="33.5" cy="13.5" r="0.6"/>
      <circle cx="74.5" cy="10.0" r="0.45"/>
      <circle cx="76.75" cy="10.0" r="0.45"/>
      <circle cx="79.25" cy="10.0" r="0.45"/>
      <circle cx="81.5" cy="10.0" r="0.45"/>
      <circle cx="72.5" cy="13.5" r="0.6"/>
      <circle cx="83.5" cy="13.5" r="0.6"/>
      <circle cx="92.0" cy="58.0" r="0.5"/>
      <circle cx="89.46" cy="58.0" r="0.5"/>
      <circle cx="86.92" cy="58.0" r="0.5"/>
      <circle cx="84.38" cy="58.0" r="0.5"/>
      <circle cx="81.84" cy="58.0" r="0.5"/>
      <circle cx="79.3" cy="58.0" r="0.5"/>
      <circle cx="40.0" cy="62.0" r="0.5"/>
      <circle cx="40.0" cy="64.54" r="0.5"/>
      <circle cx="40.0" cy="67.08" r="0.5"/>
      <circle cx="40.0" cy="69.62" r="0.5"/>
      <circle cx="40.0" cy="72.16" r="0.5"/>
      <circle cx="40.0" cy="74.7" r="0.5"/>
      <circle cx="40.0" cy="77.24" r="0.5"/>
      <circle cx="40.0" cy="79.78" r="0.5"/>
    </g>
    <g id="l-top-mask" filter="url(#f-mask)" fill="black" stroke="none" stroke-linejoin="round" stroke-linecap="round" fill-rule="evenodd" transform="translate(0 77) scale(1 -1)">
      <path id="outline-path" d="" fill="white"/>
      <rect x="38.5" y="35.745" width="1.6" height="0.7"/>
      <rect x="38.5" y="37.015" width="1.6" height="0.7"/>
      <rect x="38.5" y="38.285" width="1.6" height="0.7"/>
      <rect x="38.5" y="39.555" width="1.6" height="0.7"/>
      <rect x="43.9" y="39.555" width="1.6" height="0.7"/>
      <rect x="43.9" y="38.285" width="1.6" height="0.7"/>
      <rect x="43.9" y="37.015" width="1.6" height="0.7"/>
      <rect x="43.9" y="35.745" width="1.6" height="0.7"/>
      <rect x="13.55" y="41.2" width="2.1" height="1.6"/>
      <rect x="16.95" y="40.45" width="2.1" height="3.1"/>
      <rect x="20.35" y="41.2" width="2.1" height="1.6"/>
      <circle cx="62.38" cy="45.0" r="0.5"/>
      <circle cx="64.92" cy="45.0" r="0.5"/>
      <circle cx="67.46" cy="45.0" r="0.5"/>
      <circle cx="70.0" cy="45.0" r="0.5"/>
      <circle cx="72.54" cy="45.0" r="0.5"/>
      <circle cx="75.08" cy="45.0" r="0.5"/>
      <circle cx="77.62" cy="45.0" r="0.5"/>
      <circle cx="80.16" cy="45.0" r="0.5"/>
      <circle cx="60.5" cy="42.0" r="0.7"/>
      <circle cx="82.0" cy="42.0" r="0.7"/>
      <circle cx="15.0" cy="25.0" r="0.55"/>
      <circle cx="15.0" cy="27.54" r="0.55"/>
      <circle cx="15.0" cy="30.08" r="0.55"/>
      <circle cx="15.0" cy="32.62" r="0.55"/>
      <circle cx="15.0" cy="35.16" r="0.55"/>
      <circle cx="15.0" cy="37.7" r="0.55"/>
      <circle cx="15.0" cy="40.24" r="0.55"/>
      <circle cx="15.0" cy="42.78" r="0.55"/>
      <circle cx="15.0" cy="45.32" r="0.55"/>
      <circle cx="15.0" cy="47.86" r="0.55"/>
      <circle cx="17.54" cy="25.0" r="0.55"/>
      <circle cx="17.54" cy="27.54" r="0.55"/>
      <circle cx="17.54" cy="30.08" r="0.55"/>
      <circle cx="17.54" cy="32.62" r="0.55"/>
      <circle cx="17.54" cy="35.16" r="0.55"/>
      <circle cx="17.54" cy="37.7" r="0.55"/>
      <circle cx="17.54" cy="40.24" r="0.55"/>
      <circle cx="17.54" cy="42.78" r="0.55"/>
      <circle cx="17.54" cy="45.32" r="0.55"/>
      <circle cx="17.54" cy="47.86" r="0.55"/>
      <circle cx="45.0" cy="22.0" r="0.45"/>
      <circle cx="47.5" cy="22.0" r="0.45"/>
      <circle cx="50.0" cy="22.0" r="0.45"/>
      <circle cx="52.5" cy="22.0" r="0.45"/>
      <circle cx="55.0" cy="22.0" r="0.45"/>
      <circle cx="57.5" cy="22.0" r="0.45"/>
      <circle cx="57.0" cy="22.0" r="0.45"/>
      <circle cx="59.5" cy="22.0" r="0.45"/>
      <circle cx="62.0" cy="22.0" r="0.45"/>
      <circle cx="64.5" cy="22.0" r="0.45"/>
      <circle cx="67.0" cy="22.0" r="0.45"/>
      <circle cx="69.5" cy="22.0" r="0.45"/>
      <rect x="49.5" y="13.35" width="0.5" height="1.3"/>
      <rect x="56.0" y="13.35" width="0.5" height="1.3"/>
      <rect x="60.0" y="21.35" width="0.5" height="1.3"/>
      <rect x="57.5" y="21.35" width="0.5" height="1.3"/>
      <rect x="57.0" y="21.35" width="0.5" height="1.3"/>
      <rect x="55.5" y="21.35" width="0.5" height="1.3"/>
      <rect x="55.0" y="21.35" width="0.5" height="1.3"/>
      <rect x="53.0" y="13.35" width="0.5" height="1.3"/>
      <circle cx="24.5" cy="10.0" r="0.5"/>
      <circle cx="26.75" cy="10.0" r="0.5"/>
      <circle cx="29.25" cy="10.0" r="0.5"/>
      <circle cx="31.5" cy="10.0" r="0.5"/>
      <circle cx="22.5" cy="13.5" r="0.65"/>
      <circle cx="33.5" cy="13.5" r="0.65"/>
      <circle cx="74.5" cy="10.0" r="0.5"/>
      <circle cx="76.75" cy="10.0" r="0.5"/>
      <circle cx="79.25" cy="10.0" r="0.5"/>
      <circle cx="81.5" cy="10.0" r="0.5"/>
      <circle cx="72.5" cy="13.5" r="0.65"/>
      <circle cx="83.5" cy="13.5" r="0.65"/>
      <circle cx="92.0" cy="58.0" r="0.55"/>
      <circle cx="89.46" cy="58.0" r="0.55"/>
      <circle cx="86.92" cy="58.0" r="0.55"/>
      <circle cx="84.38" cy="58.0" r="0.55"/>
      <circle cx="81.84" cy="58.0" r="0.55"/>
      <circle cx="79.3" cy="58.0" r="0.55"/>
      <circle cx="40.0" cy="62.0" r="0.55"/>
      <circle cx="40.0" cy="64.54" r="0.55"/>
      <circle cx="40.0" cy="67.08" r="0.55"/>
      <circle cx="40.0" cy="69.62" r="0.55"/>
      <circle cx="40.0" cy="72.16" r="0.55"/>
      <circle cx="40.0" cy="74.7" r="0.55"/>
      <circle cx="40.0" cy="77.24" r="0.55"/>
      <circle cx="40.0" cy="79.78" r="0.55"/>
    </g>
    <g id="l-top-silk" filter="url(#f-silk)" fill="none" stroke="white" stroke-linejoin="round" stroke-linecap="round" fill-rule="evenodd" transform="translate(0 77) scale(1 -1)">
      <circle cx="42.0" cy="38.0" r="0.075" fill="white" stroke="none"/>
      <circle cx="18.0" cy="42.0" r="0.075" fill="white" stroke="none"/>
      <circle cx="70.0" cy="45.0" r="0.075" fill="white" stroke="none"/>
      <circle cx="15.0" cy="25.0" r="0.075" fill="white" stroke="none"/>
      <circle cx="50.0" cy="22.0" r="0.075" fill="white" stroke="none"/>
      <circle cx="62.0" cy="22.0" r="0.075" fill="white" stroke="none"/>
      <circle cx="55.0" cy="18.0" r="0.075" fill="white" stroke="none"/>
      <circle cx="28.0" cy="10.0" r="0.075" fill="white" stroke="none"/>
      <circle cx="78.0" cy="10.0" r="0.075" fill="white" stroke="none"/>
      <circle cx="92.0" cy="58.0" r="0.075" fill="white" stroke="none"/>
      <circle cx="40.0" cy="62.0" r="0.075" fill="white" stroke="none"/>
    </g>
    <g id="l-top-paste" filter="url(#f-paste)" fill="white" stroke="none" stroke-linejoin="round" stroke-linecap="round" fill-rule="evenodd" transform="translate(0 77) scale(1 -1)">
      <rect x="38.55" y="35.795" width="1.5" height="0.6"/>
      <rect x="38.55" y="37.065" width="1.5" height="0.6"/>
      <rect x="38.55" y="38.335" width="1.5" height="0.6"/>
      <rect x="38.55" y="39.605" width="1.5" height="0.6"/>
      <rect x="43.95" y="39.605" width="1.5" height="0.6"/>
      <rect x="43.95" y="38.335" width="1.5" height="0.6"/>
      <rect x="43.95" y="37.065" width="1.5" height="0.6"/>
      <rect x="43.95" y="35.795" width="1.5" height="0.6"/>
      <rect x="13.6" y="41.25" width="2.0" height="1.5"/>
      <rect x="17.0" y="40.5" width="2.0" height="3.0"/>
      <rect x="20.4" y="41.25" width="2.0" height="1.5"/>
      <rect x="49.55" y="13.4" width="0.4" height="1.2"/>
      <rect x="56.05" y="13.4" width="0.4" height="1.2"/>
      <rect x="60.05" y="21.4" width="0.4" height="1.2"/>
      <rect x="57.55" y="21.4" width="0.4" height="1.2"/>
      <rect x="57.05" y="21.4" width="0.4" height="1.2"/>
      <rect x="55.55" y="21.4" width="0.4" height="1.2"/>
      <rect x="55.05" y="21.4" width="0.4" height="1.2"/>
      <rect x="53.05" y="13.4" width="0.4" height="1.2"/>
    </g>
    <g id="l-mechanical-outline" stroke-linejoin="round" stroke-linecap="round" transform="translate(0 77) scale(1 -1)">
      <path d="M 5.0 5.0 L 105.0 5.0 L 105.0 72.0 L 5.0 72.0 L 5.0 5.0" fill="white"/>
    </g>
  </g>
</svg>