<?xml version="1.0" encoding="utf-8"?>
<svg width="111.0mm" height="86.33mm" viewBox="-3.0 -3.0 111.0 86.33" style="background-color:#f4f4f4" xmlns="http://www.w3.org/2000/svg" xmlns:xlink="http://www.w3.org/1999/xlink">
  <g id="l-top-copper" transform="translate(0 80.33) scale(1 -1)" stroke-linejoin="round" stroke-linecap="round">
    <path d="M 12.0 52.0 L 18.0 42.0" fill="none" stroke="#C87533" stroke-linecap="round" stroke-linejoin="round" stroke-width="0.8"/>
    <path d="M 18.0 42.0 L 42.0 38.0" fill="none" stroke="#C87533" stroke-linecap="round" stroke-linejoin="round" stroke-width="0.4"/>
    <path d="M 55.0 18.0 L 28.0 10.0" fill="none" stroke="#C87533" stroke-linecap="round" stroke-linejoin="round" stroke-width="0.3"/>
    <path d="M 55.0 18.0 L 78.0 10.0" fill="none" stroke="#C87533" stroke-linecap="round" stroke-linejoin="round" stroke-width="0.3"/>
    <path d="M 55.0 62.0 L 55.0 18.0" fill="none" stroke="#C87533" stroke-linecap="round" stroke-linejoin="round" stroke-width="0.3"/>
    <path d="M 15.0 25.0 L 50.0 22.0" fill="none" stroke="#C87533" stroke-linecap="round" stroke-linejoin="round" stroke-width="0.3"/>
    <path d="M 42.0 38.0 L 70.0 45.0" fill="none" stroke="#C87533" stroke-linecap="round" stroke-linejoin="round" stroke-width="0.3"/>
    <path d="M 42.0 38.0 L 70.0 45.0" fill="none" stroke="#C87533" stroke-linecap="round" stroke-linejoin="round" stroke-width="0.3"/>
    <path d="M 92.0 58.0 L 40.0 72.0 L 40.0 62.0" fill="none" stroke="#C87533" stroke-linecap="round" stroke-linejoin="round" stroke-width="0.3"/>
    <path d="M 6.0 6.0 L 104.0 6.0 L 104.0 71.0 L 6.0 71.0 L 6.0 6.0" fill="#C87533"/>
    <rect x="38.55" y="35.795" width="1.5" height="0.6" fill="#C87533"/>
    <rect x="38.55" y="37.065" width="1.5" height="0.6" fill="#C87533"/>
    <rect x="38.55" y="38.335" width="1.5" height="0.6" fill="#C87533"/>
    <rect x="38.55" y="39.605" width="1.5" height="0.6" fill="#C87533"/>
    <rect x="43.95" y="39.605" width="1.5" height="0.6" fill="#C87533"/>
    <rect x="43.95" y="38.335" width="1.5" height="0.6" fill="#C87533"/>
    <rect x="43.95" y="37.065" width="1.5" height="0.6" fill="#C87533"/>
    <rect x="43.95" y="35.795" width="1.5" height="0.6" fill="#C87533"/>
    <rect x="13.6" y="41.25" width="2.0" height="1.5" fill="#C87533"/>
    <rect x="17.0" y="40.5" width="2.0" height="3.0" fill="#C87533"/>
    <rect x="20.4" y="41.25" width="2.0" height="1.5" fill="#C87533"/>
    <circle cx="62.38" cy="45.0" r="0.45" fill="#C87533"/>
    <circle cx="64.92" cy="45.0" r="0.45" fill="#C87533"/>
    <circle cx="67.46" cy="45.0" r="0.45" fill="#C87533"/>
    <circle cx="70.0" cy="45.0" r="0.45" fill="#C87533"/>
    <circle cx="72.54" cy="45.0" r="0.45" fill="#C87533"/>
    <circle cx="75.08" cy="45.0" r="0.45" fill="#C87533"/>
    <circle cx="77.62" cy="45.0" r="0.45" fill="#C87533"/>
    <circle cx="80.16" cy="45.0" r="0.45" fill="#C87533"/>
    <circle cx="60.5" cy="42.0" r="0.65" fill="#C87533"/>
    <circle cx="82.0" cy="42.0" r="0.65" fill="#C87533"/>
    <circle cx="15.0" cy="25.0" r="0.5" fill="#C87533"/>
    <circle cx="15.0" cy="27.54" r="0.5" fill="#C87533"/>
    <circle cx="15.0" cy="30.08" r="0.5" fill="#C87533"/>
    <circle cx="15.0" cy="32.62" r="0.5" fill="#C87533"/>
    <circle cx="15.0" cy="35.16" r="0.5" fill="#C87533"/>
    <circle cx="15.0" cy="37.7" r="0.5" fill="#C87533"/>
    <circle cx="15.0" cy="40.24" r="0.5" fill="#C87533"/>
    <circle cx="15.0" cy="42.78" r="0.5" fill="#C87533"/>
    <circle cx="15.0" cy="45.32" r="0.5" fill="#C87533"/>
    <circle cx="15.0" cy="47.86" r="0.5" fill="#C87533"/>
    <circle cx="17.54" cy="25.0" r="0.5" fill="#C87533"/>
    <circle cx="17.54" cy="27.54" r="0.5" fill="#C87533"/>
    <circle cx="17.54" cy="30.08" r="0.5" fill="#C87533"/>
    <circle cx="17.54" cy="32.62" r="0.5" fill="#C87533"/>
    <circle cx="17.54" cy="35.16" r="0.5" fill="#C87533"/>
    <circle cx="17.54" cy="37.7" r="0.5" fill="#C87533"/>
    <circle cx="17.54" cy="40.24" r="0.5" fill="#C87533"/>
    <circle cx="17.54" cy="42.78" r="0.5" fill="#C87533"/>
    <circle cx="17.54" cy="45.32" r="0.5" fill="#C87533"/>
    <circle cx="17.54" cy="47.86" r="0.5" fill="#C87533"/>
    <circle cx="45.0" cy="22.0" r="0.4" fill="#C87533"/>
    <circle cx="47.5" cy="22.0" r="0.4" fill="#C87533"/>
    <circle cx="50.0" cy="22.0" r="0.4" fill="#C87533"/>
    <circle cx="52.5" cy="22.0" r="0.4" fill="#C87533"/>
    <circle cx="55.0" cy="22.0" r="0.4" fill="#C87533"/>
    <circle cx="57.5" cy="22.0" r="0.4" fill="#C87533"/>
    <circle cx="57.0" cy="22.0" r="0.4" fill="#C87533"/>
    <circle cx="59.5" cy="22.0" r="0.4" fill="#C87533"/>
    <circle cx="62.0" cy="22.0" r="0.4" fill="#C87533"/>
    <circle cx="64.5" cy="22.0" r="0.4" fill="#C87533"/>
    <circle cx="67.0" cy="22.0" r="0.4" fill="#C87533"/>
    <circle cx="69.5" cy="22.0" r="0.4" fill="#C87533"/>
    <rect x="49.55" y="13.4" width="0.4" height="1.2" fill="#C87533"/>
    <rect x="56.05" y="13.4" width="0.4" height="1.2" fill="#C87533"/>
    <rect x="60.05" y="21.4" width="0.4" height="1.2" fill="#C87533"/>
    <rect x="57.55" y="21.4" width="0.4" height="1.2" fill="#C87533"/>
    <rect x="57.05" y="21.4" width="0.4" height="1.2" fill="#C87533"/>
    <rect x="55.55" y="21.4" width="0.4" height="1.2" fill="#C87533"/>
    <rect x="55.05" y="21.4" width="0.4" height="1.2" fill="#C87533"/>
    <rect x="53.05" y="13.4" width="0.4" height="1.2" fill="#C87533"/>
    <circle cx="24.5" cy="10.0" r="0.45" fill="#C87533"/>
    <circle cx="26.75" cy="10.0" r="0.45" fill="#C87533"/>
    <circle cx="29.25" cy="10.0" r="0.45" fill="#C87533"/>
    <circle cx="31.5" cy="10.0" r="0.45" fill="#C87533"/>
    <circle cx="22.5" cy="13.5" r="0.6" fill="#C87533"/>
    <circle cx="33.5" cy="13.5" r="0.6" fill="#C87533"/>
    <circle cx="74.5" cy="10.0" r="0.45" fill="#C87533"/>
    <circle cx="76.75" cy="10.0" r="0.45" fill="#C87533"/>
    <circle cx="79.25" cy="10.0" r="0.45" fill="#C87533"/>
    <circle cx="81.5" cy="10.0" r="0.45" fill="#C87533"/>
    <circle cx="72.5" cy="13.5" r="0.6" fill="#C87533"/>
    <circle cx="83.5" cy="13.5" r="0.6" fill="#C87533"/>
    <circle cx="92.0" cy="58.0" r="0.5" fill="#C87533"/>
    <circle cx="89.46" cy="58.0" r="0.5" fill="#C87533"/>
    <circle cx="86.92" cy="58.0" r="0.5" fill="#C87533"/>
    <circle cx="84.38" cy="58.0" r="0.5" fill="#C87533"/>
    <circle cx="81.84" cy="58.0" r="0.5" fill="#C87533"/>
    <circle cx="79.3" cy="58.0" r="0.5" fill="#C87533"/>
    <circle cx="40.0" cy="62.0" r="0.5" fill="#C87533"/>
    <circle cx="40.0" cy="64.54" r="0.5" fill="#C87533"/>
    <circle cx="40.0" cy="67.08" r="0.5" fill="#C87533"/>
    <circle cx="40.0" cy="69.62" r="0.5" fill="#C87533"/>
    <circle cx="40.0" cy="72.16" r="0.5" fill="#C87533"/>
    <circle cx="40.0" cy="74.7" r="0.5" fill="#C87533"/>
    <circle cx="40.0" cy="77.24" r="0.5" fill="#C87533"/>
    <circle cx="40.0" cy="79.78" r="0.5" fill="#C87533"/>
  </g>
  <g id="l-top-mask" transform="translate(0 80.33) scale(1 -1)" stroke-linejoin="round" stroke-linecap="round">
    <rect x="38.5" y="35.745" width="1.6" height="0.7" fill="#1A5C1A"/>
    <rect x="38.5" y="37.015" width="1.6" height="0.7" fill="#1A5C1A"/>
    <rect x="38.5" y="38.285" width="1.6" height="0.7" fill="#1A5C1A"/>
    <rect x="38.5" y="39.555" width="1.6" height="0.7" fill="#1A5C1A"/>
    <rect x="43.9" y="39.555" width="1.6" height="0.7" fill="#1A5C1A"/>
    <rect x="43.9" y="38.285" width="1.6" height="0.7" fill="#1A5C1A"/>
    <rect x="43.9" y="37.015" width="1.6" height="0.7" fill="#1A5C1A"/>
    <rect x="43.9" y="35.745" width="1.6" height="0.7" fill="#1A5C1A"/>
    <rect x="13.55" y="41.2" width="2.1" height="1.6" fill="#1A5C1A"/>
    <rect x="16.95" y="40.45" width="2.1" height="3.1" fill="#1A5C1A"/>
    <rect x="20.35" y="41.2" width="2.1" height="1.6" fill="#1A5C1A"/>
    <circle cx="62.38" cy="45.0" r="0.5" fill="#1A5C1A"/>
    <circle cx="64.92" cy="45.0" r="0.5" fill="#1A5C1A"/>
    <circle cx="67.46" cy="45.0" r="0.5" fill="#1A5C1A"/>
    <circle cx="70.0" cy="45.0" r="0.5" fill="#1A5C1A"/>
    <circle cx="72.54" cy="45.0" r="0.5" fill="#1A5C1A"/>
    <circle cx="75.08" cy="45.0" r="0.5" fill="#1A5C1A"/>
    <circle cx="77.62" cy="45.0" r="0.5" fill="#1A5C1A"/>
    <circle cx="80.16" cy="45.0" r="0.5" fill="#1A5C1A"/>
    <circle cx="60.5" cy="42.0" r="0.7" fill="#1A5C1A"/>
    <circle cx="82.0" cy="42.0" r="0.7" fill="#1A5C1A"/>
    <circle cx="15.0" cy="25.0" r="0.55" fill="#1A5C1A"/>
    <circle cx="15.0" cy="27.54" r="0.55" fill="#1A5C1A"/>
    <circle cx="15.0" cy="30.08" r="0.55" fill="#1A5C1A"/>
    <circle cx="15.0" cy="32.62" r="0.55" fill="#1A5C1A"/>
    <circle cx="15.0" cy="35.16" r="0.55" fill="#1A5C1A"/>
    <circle cx="15.0" cy="37.7" r="0.55" fill="#1A5C1A"/>
    <circle cx="15.0" cy="40.24" r="0.55" fill="#1A5C1A"/>
    <circle cx="15.0" cy="42.78" r="0.55" fill="#1A5C1A"/>
    <circle cx="15.0" cy="45.32" r="0.55" fill="#1A5C1A"/>
    <circle cx="15.0" cy="47.86" r="0.55" fill="#1A5C1A"/>
    <circle cx="17.54" cy="25.0" r="0.55" fill="#1A5C1A"/>
    <circle cx="17.54" cy="27.54" r="0.55" fill="#1A5C1A"/>
    <circle cx="17.54" cy="30.08" r="0.55" fill="#1A5C1A"/>
    <circle cx="17.54" cy="32.62" r="0.55" fill="#1A5C1A"/>
    <circle cx="17.54" cy="35.16" r="0.55" fill="#1A5C1A"/>
    <circle cx="17.54" cy="37.7" r="0.55" fill="#1A5C1A"/>
    <circle cx="17.54" cy="40.24" r="0.55" fill="#1A5C1A"/>
    <circle cx="17.54" cy="42.78" r="0.55" fill="#1A5C1A"/>
    <circle cx="17.54" cy="45.32" r="0.55" fill="#1A5C1A"/>
    <circle cx="17.54" cy="47.86" r="0.55" fill="#1A5C1A"/>
    <circle cx="45.0" cy="22.0" r="0.45" fill="#1A5C1A"/>
    <circle cx="47.5" cy="22.0" r="0.45" fill="#1A5C1A"/>
    <circle cx="50.0" cy="22.0" r="0.45" fill="#1A5C1A"/>
    <circle cx="52.5" cy="22.0" r="0.45" fill="#1A5C1A"/>
    <circle cx="55.0" cy="22.0" r="0.45" fill="#1A5C1A"/>
    <circle cx="57.5" cy="22.0" r="0.45" fill="#1A5C1A"/>
    <circle cx="57.0" cy="22.0" r="0.45" fill="#1A5C1A"/>
    <circle cx="59.5" cy="22.0" r="0.45" fill="#1A5C1A"/>
    <circle cx="62.0" cy="22.0" r="0.45" fill="#1A5C1A"/>
    <circle cx="64.5" cy="22.0" r="0.45" fill="#1A5C1A"/>
    <circle cx="67.0" cy="22.0" r="0.45" fill="#1A5C1A"/>
    <circle cx="69.5" cy="22.0" r="0.45" fill="#1A5C1A"/>
    <rect x="49.5" y="13.35" width="0.5" height="1.3" fill="#1A5C1A"/>
    <rect x="56.0" y="13.35" width="0.5" height="1.3" fill="#1A5C1A"/>
    <rect x="60.0" y="21.35" width="0.5" height="1.3" fill="#1A5C1A"/>
    <rect x="57.5" y="21.35" width="0.5" height="1.3" fill="#1A5C1A"/>
    <rect x="57.0" y="21.35" width="0.5" height="1.3" fill="#1A5C1A"/>
    <rect x="55.5" y="21.35" width="0.5" height="1.3" fill="#1A5C1A"/>
    <rect x="55.0" y="21.35" width="0.5" height="1.3" fill="#1A5C1A"/>
    <rect x="53.0" y="13.35" width="0.5" height="1.3" fill="#1A5C1A"/>
    <circle cx="24.5" cy="10.0" r="0.5" fill="#1A5C1A"/>
    <circle cx="26.75" cy="10.0" r="0.5" fill="#1A5C1A"/>
    <circle cx="29.25" cy="10.0" r="0.5" fill="#1A5C1A"/>
    <circle cx="31.5" cy="10.0" r="0.5" fill="#1A5C1A"/>
    <circle cx="22.5" cy="13.5" r="0.65" fill="#1A5C1A"/>
    <circle cx="33.5" cy="13.5" r="0.65" fill="#1A5C1A"/>
    <circle cx="74.5" cy="10.0" r="0.5" fill="#1A5C1A"/>
    <circle cx="76.75" cy="10.0" r="0.5" fill="#1A5C1A"/>
    <circle cx="79.25" cy="10.0" r="0.5" fill="#1A5C1A"/>
    <circle cx="81.5" cy="10.0" r="0.5" fill="#1A5C1A"/>
    <circle cx="72.5" cy="13.5" r="0.65" fill="#1A5C1A"/>
    <circle cx="83.5" cy="13.5" r="0.65" fill="#1A5C1A"/>
    <circle cx="92.0" cy="58.0" r="0.55" fill="#1A5C1A"/>
    <circle cx="89.46" cy="58.0" r="0.55" fill="#1A5C1A"/>
    <circle cx="86.92" cy="58.0" r="0.55" fill="#1A5C1A"/>
    <circle cx="84.38" cy="58.0" r="0.55" fill="#1A5C1A"/>
    <circle cx="81.84" cy="58.0" r="0.55" fill="#1A5C1A"/>
    <circle cx="79.3" cy="58.0" r="0.55" fill="#1A5C1A"/>
    <circle cx="40.0" cy="62.0" r="0.55" fill="#1A5C1A"/>
    <circle cx="40.0" cy="64.54" r="0.55" fill="#1A5C1A"/>
    <circle cx="40.0" cy="67.08" r="0.55" fill="#1A5C1A"/>
    <circle cx="40.0" cy="69.62" r="0.55" fill="#1A5C1A"/>
    <circle cx="40.0" cy="72.16" r="0.55" fill="#1A5C1A"/>
    <circle cx="40.0" cy="74.7" r="0.55" fill="#1A5C1A"/>
    <circle cx="40.0" cy="77.24" r="0.55" fill="#1A5C1A"/>
    <circle cx="40.0" cy="79.78" r="0.55" fill="#1A5C1A"/>
  </g>
  <g id="l-top-paste" transform="translate(0 80.33) scale(1 -1)" stroke-linejoin="round" stroke-linecap="round">
    <rect x="38.55" y="35.795" width="1.5" height="0.6" fill="#888888"/>
    <rect x="38.55" y="37.065" width="1.5" height="0.6" fill="#888888"/>
    <rect x="38.55" y="38.335" width="1.5" height="0.6" fill="#888888"/>
    <rect x="38.55" y="39.605" width="1.5" height="0.6" fill="#888888"/>
    <rect x="43.95" y="39.605" width="1.5" height="0.6" fill="#888888"/>
    <rect x="43.95" y="38.335" width="1.5" height="0.6" fill="#888888"/>
    <rect x="43.95" y="37.065" width="1.5" height="0.6" fill="#888888"/>
    <rect x="43.95" y="35.795" width="1.5" height="0.6" fill="#888888"/>
    <rect x="13.6" y="41.25" width="2.0" height="1.5" fill="#888888"/>
    <rect x="17.0" y="40.5" width="2.0" height="3.0" fill="#888888"/>
    <rect x="20.4" y="41.25" width="2.0" height="1.5" fill="#888888"/>
    <rect x="49.55" y="13.4" width="0.4" height="1.2" fill="#888888"/>
    <rect x="56.05" y="13.4" width="0.4" height="1.2" fill="#888888"/>
    <rect x="60.05" y="21.4" width="0.4" height="1.2" fill="#888888"/>
    <rect x="57.55" y="21.4" width="0.4" height="1.2" fill="#888888"/>
    <rect x="57.05" y="21.4" width="0.4" height="1.2" fill="#888888"/>
    <rect x="55.55" y="21.4" width="0.4" height="1.2" fill="#888888"/>
    <rect x="55.05" y="21.4" width="0.4" height="1.2" fill="#888888"/>
    <rect x="53.05" y="13.4" width="0.4" height="1.2" fill="#888888"/>
  </g>
  <g id="l-top-silk" transform="translate(0 80.33) scale(1 -1)" stroke-linejoin="round" stroke-linecap="round">
    <circle cx="42.0" cy="38.0" r="0.075" fill="#E8E8E8"/>
    <circle cx="18.0" cy="42.0" r="0.075" fill="#E8E8E8"/>
    <circle cx="70.0" cy="45.0" r="0.075" fill="#E8E8E8"/>
    <circle cx="15.0" cy="25.0" r="0.075" fill="#E8E8E8"/>
    <circle cx="50.0" cy="22.0" r="0.075" fill="#E8E8E8"/>
    <circle cx="62.0" cy="22.0" r="0.075" fill="#E8E8E8"/>
    <circle cx="55.0" cy="18.0" r="0.075" fill="#E8E8E8"/>
    <circle cx="28.0" cy="10.0" r="0.075" fill="#E8E8E8"/>
    <circle cx="78.0" cy="10.0" r="0.075" fill="#E8E8E8"/>
    <circle cx="92.0" cy="58.0" r="0.075" fill="#E8E8E8"/>
    <circle cx="40.0" cy="62.0" r="0.075" fill="#E8E8E8"/>
  </g>
  <g id="l-bottom-copper" transform="translate(0 80.33) scale(1 -1)" stroke-linejoin="round" stroke-linecap="round"/>
  <g id="l-mechanical-outline" transform="translate(0 80.33) scale(1 -1)" stroke-linejoin="round" stroke-linecap="round">
    <path d="M 5.0 5.0 L 105.0 5.0 L 105.0 72.0 L 5.0 72.0 L 5.0 5.0" fill="#D4A017"/>
  </g>
</svg>