<?xml version="1.0" encoding="UTF-8"?>
<svg xmlns="http://www.w3.org/2000/svg" width="128" height="128" viewBox="0 0 160 160">
  <title>ESP32 Computer Aided Transceiver Panel</title>
  <defs>
    <linearGradient id="g" x1="0" y1="0" x2="0" y2="1">
      <stop offset="0" stop-color="#34d399"/>
      <stop offset="1" stop-color="#047857"/>
    </linearGradient>
  </defs>
  <rect width="160" height="160" rx="28" fill="#0f172a"/>
  <line x1="80" y1="118" x2="80" y2="52" stroke="url(#g)" stroke-width="3" stroke-linecap="round"/>
  <circle cx="80" cy="48" r="5" fill="#34d399"/>
  <path d="M48 48 Q80 18 112 48" fill="none" stroke="#38bdf8" stroke-width="2.5" stroke-linecap="round"/>
  <path d="M40 58 Q80 32 120 58" fill="none" stroke="#38bdf8" stroke-width="2" stroke-linecap="round" opacity="0.7"/>
  <path d="M32 68 Q80 46 128 68" fill="none" stroke="#38bdf8" stroke-width="1.5" stroke-linecap="round" opacity="0.45"/>
  <rect x="44" y="88" width="28" height="20" rx="4" fill="#1e3a5f" stroke="#60a5fa" stroke-width="1.5"/>
  <rect x="88" y="88" width="28" height="20" rx="4" fill="#134e4a" stroke="#34d399" stroke-width="1.5"/>
  <path d="M72 98 L88 98" stroke="#94a3b8" stroke-width="2" stroke-dasharray="3 2"/>
  <circle cx="72" cy="98" r="2" fill="#60a5fa"/>
  <circle cx="88" cy="98" r="2" fill="#34d399"/>
  <text x="58" y="102" fill="#bfdbfe" font-family="Arial,sans-serif" font-size="8" font-weight="bold" text-anchor="middle">PC</text>
  <text x="102" y="102" fill="#a7f3d0" font-family="Arial,sans-serif" font-size="8" font-weight="bold" text-anchor="middle">TRX</text>
  <text x="80" y="138" fill="#e2e8f0" font-family="Arial,sans-serif" font-size="8.5" font-weight="600" text-anchor="middle">Computer Aided</text>
  <text x="80" y="150" fill="#34d399" font-family="Arial,sans-serif" font-size="9" font-weight="700" text-anchor="middle">Transceiver</text>
</svg>
